<svg width="58" height="53" viewBox="0 0 58 53" fill="none" xmlns="http://www.w3.org/2000/svg">
<path d="M2.17756 0.000212015C1.89306 -0.00376095 1.6106 0.0481392 1.34658 0.152896C1.08257 0.257653 0.842282 0.413177 0.639672 0.61043C0.437062 0.807684 0.276176 1.04273 0.166363 1.30192C0.0565498 1.5611 0 1.83925 0 2.1202C0 2.40116 0.0565498 2.67931 0.166363 2.93849C0.276176 3.19767 0.437062 3.43272 0.639672 3.62998C0.842282 3.82723 1.08257 3.98275 1.34658 4.08751C1.6106 4.19227 1.89306 4.24417 2.17756 4.24019H6.21153C6.69654 4.24019 7.10125 4.5401 7.2389 5.00207L16.3887 35.7171C17.1918 38.4131 19.7171 40.28 22.5655 40.28H46.0565C49.0006 40.28 51.5906 38.2837 52.3045 35.4645V35.4604L57.9361 13.2336C58.0151 12.921 58.0209 12.5947 57.9531 12.2796C57.8853 11.9645 57.7456 11.6687 57.5447 11.4149C57.3438 11.161 57.0869 10.9557 56.7936 10.8145C56.5004 10.6734 56.1783 10.6001 55.8521 10.6002H13.3821L11.3609 3.80543C11.3595 3.80543 11.3581 3.80543 11.3567 3.80543C10.6871 1.55805 8.58201 0.000212015 6.21153 0.000212015H2.17756ZM34.3823 14.8402C35.5674 14.8402 36.5292 15.7878 36.5292 16.9601V23.3201H42.9702C44.1553 23.3201 45.1172 24.2678 45.1172 25.4401C45.1172 26.6125 44.1553 27.5601 42.9702 27.5601H36.5292V33.9201C36.5292 35.0924 35.5674 36.0401 34.3823 36.0401C33.1971 36.0401 32.2353 35.0924 32.2353 33.9201V27.5601H25.7943C24.6092 27.5601 23.6474 26.6125 23.6474 25.4401C23.6474 24.2678 24.6092 23.3201 25.7943 23.3201H32.2353V16.9601C32.2353 15.7878 33.1971 14.8402 34.3823 14.8402ZM23.6474 44.52C22.5085 44.52 21.4163 44.9667 20.6111 45.7619C19.8058 46.557 19.3534 47.6355 19.3534 48.76C19.3534 49.8845 19.8058 50.963 20.6111 51.7581C21.4163 52.5533 22.5085 53 23.6474 53C24.7862 53 25.8784 52.5533 26.6836 51.7581C27.4889 50.963 27.9413 49.8845 27.9413 48.76C27.9413 47.6355 27.4889 46.557 26.6836 45.7619C25.8784 44.9667 24.7862 44.52 23.6474 44.52ZM45.1172 44.52C43.9783 44.52 42.8861 44.9667 42.0809 45.7619C41.2756 46.557 40.8232 47.6355 40.8232 48.76C40.8232 49.8845 41.2756 50.963 42.0809 51.7581C42.8861 52.5533 43.9783 53 45.1172 53C46.256 53 47.3482 52.5533 48.1534 51.7581C48.9587 50.963 49.4111 49.8845 49.4111 48.76C49.4111 47.6355 48.9587 46.557 48.1534 45.7619C47.3482 44.9667 46.256 44.52 45.1172 44.52Z" fill="white"/>
</svg>
