<svg width="41" height="41" viewBox="0 0 41 41" fill="none" xmlns="http://www.w3.org/2000/svg">
<circle cx="20.0567" cy="20.0567" r="20.0567" fill="white"/>
<path d="M24.1709 11.3145C21.1933 11.3145 19.5425 13.4231 19.5425 13.4231C19.5425 13.4231 17.8916 11.3145 14.914 11.3145C11.7893 11.3145 9.25696 13.7984 9.25696 16.8636C9.25696 21.0718 14.3092 25.1499 15.7173 26.4384C17.3393 27.9215 19.5425 29.8284 19.5425 29.8284C19.5425 29.8284 21.7456 27.9215 23.3676 26.4384C24.7757 25.1499 29.828 21.0718 29.828 16.8636C29.828 13.7984 27.2957 11.3145 24.1709 11.3145ZM22.4337 24.5416C22.2517 24.703 22.0933 24.8432 21.9647 24.9613C21.1923 25.6675 20.2789 26.4777 19.5425 27.1254C18.806 26.4777 17.8916 25.6665 17.1202 24.9613C16.9906 24.8432 16.8322 24.702 16.6512 24.5416C15.1907 23.2471 11.3141 19.8087 11.3141 16.8636C11.3141 14.9163 12.9289 13.3323 14.914 13.3323C16.7932 13.3323 17.8824 14.6187 17.9112 14.652L19.5425 16.3591L21.1737 14.652C21.184 14.6389 22.2918 13.3323 24.1709 13.3323C26.156 13.3323 27.7709 14.9163 27.7709 16.8636C27.7709 19.8087 23.8943 23.2471 22.4337 24.5416Z" fill="#070645"/>
</svg>
