<svg width="45" height="50" viewBox="0 0 45 50" fill="none" xmlns="http://www.w3.org/2000/svg">
<path d="M35.2174 50H9.78261C4.40217 50 0 45.1087 0 39.1304V10.8696C0 4.8913 4.40217 0 9.78261 0H35.2174C40.5978 0 45 4.8913 45 10.8696V39.1304C45 45.1087 40.5978 50 35.2174 50Z" fill="url(#paint0_radial_390_1873)"/>
<path d="M22.5 10.2647C26.9647 10.2647 27.45 10.2647 29.1971 10.3735C30.8471 10.4824 31.7206 10.8088 32.3029 11.0265C33.0794 11.3529 33.6618 11.7882 34.2441 12.4412C34.8265 13.0941 35.2147 13.7471 35.5059 14.6176C35.7 15.2706 35.9912 16.25 36.0882 18.1C36.0882 19.95 36.0882 20.4941 36.0882 25.5C36.0882 30.5059 36.0882 31.05 35.9912 33.0088C35.8941 34.8588 35.6029 35.8382 35.4088 36.4912C35.1176 37.3618 34.7294 38.0147 34.1471 38.6676C33.5647 39.3206 32.9824 39.7559 32.2059 40.0824C31.6235 40.3 30.75 40.6265 29.1 40.7353C27.45 40.7353 26.9647 40.7353 22.5 40.7353C18.0353 40.7353 17.55 40.7353 15.8029 40.6265C14.1529 40.5176 13.2794 40.1912 12.6971 39.9735C11.9206 39.6471 11.3382 39.2118 10.7559 38.5588C10.1735 37.9059 9.78529 37.2529 9.49412 36.3824C9.3 35.7294 9.00882 34.75 8.91176 32.9C8.91176 31.05 8.91176 30.5059 8.91176 25.5C8.91176 20.4941 8.91176 19.95 9.00882 17.9912C9.10588 16.1412 9.39706 15.1618 9.59118 14.5088C9.88235 13.6382 10.2706 12.9853 10.8529 12.3324C11.4353 11.6794 12.0176 11.2441 12.7941 10.9176C13.3765 10.7 14.25 10.3735 15.9 10.2647C17.55 10.2647 18.0353 10.2647 22.5 10.2647ZM22.5 7C18.0353 7 17.4529 7 15.7059 7.10882C13.9588 7.21765 12.7941 7.54412 11.7265 7.97941C10.6588 8.41471 9.68823 9.06765 8.81471 10.1559C7.94118 11.2441 7.35882 12.2235 6.87353 13.4206C6.48529 14.6176 6.19412 15.9235 6.09706 17.8824C6 19.8412 6 20.4941 6 25.5C6 30.5059 6 31.1588 6.09706 33.1176C6.19412 35.0765 6.48529 36.3824 6.87353 37.5794C7.26176 38.7765 7.84412 39.8647 8.81471 40.8441C9.68823 41.8235 10.6588 42.4765 11.7265 43.0206C12.7941 43.4559 13.9588 43.7824 15.7059 43.8912C17.4529 44 18.0353 44 22.5 44C26.9647 44 27.5471 44 29.2941 43.8912C31.0412 43.7824 32.2059 43.4559 33.2735 43.0206C34.3412 42.5853 35.3118 41.9324 36.1853 40.8441C37.0588 39.8647 37.6412 38.7765 38.1265 37.5794C38.5147 36.3824 38.8059 35.0765 38.9029 33.1176C39 31.1588 39 30.5059 39 25.5C39 20.4941 39 19.8412 38.9029 17.8824C38.8059 15.9235 38.5147 14.6176 38.1265 13.4206C37.7382 12.2235 37.1559 11.1353 36.1853 10.1559C35.2147 9.17647 34.3412 8.52353 33.2735 7.97941C32.2059 7.54412 31.0412 7.21765 29.2941 7.10882C27.5471 7 26.9647 7 22.5 7Z" fill="white"/>
<path d="M22.5 15C17.7778 15 14 19.4444 14 25C14 30.5556 17.7778 35 22.5 35C27.2222 35 31 30.5556 31 25C31 19.4444 27.2222 15 22.5 15ZM22.5 31.6667C19.3833 31.6667 16.8333 28.6667 16.8333 25C16.8333 21.3333 19.3833 18.3333 22.5 18.3333C25.6167 18.3333 28.1667 21.3333 28.1667 25C28.1667 28.6667 25.6167 31.6667 22.5 31.6667Z" fill="white"/>
<defs>
<radialGradient id="paint0_radial_390_1873" cx="0" cy="0" r="1" gradientUnits="userSpaceOnUse" gradientTransform="translate(9.30221 60.1039) rotate(-52.8866) scale(72.6624 46.8891)">
<stop offset="0.073" stop-color="#EACC7B"/>
<stop offset="0.184" stop-color="#ECAA59"/>
<stop offset="0.307" stop-color="#EF802E"/>
<stop offset="0.358" stop-color="#EF6D3A"/>
<stop offset="0.46" stop-color="#F04B50"/>
<stop offset="0.516" stop-color="#F03E58"/>
<stop offset="0.689" stop-color="#DB359E"/>
<stop offset="0.724" stop-color="#CE37A4"/>
<stop offset="0.789" stop-color="#AC3CB4"/>
<stop offset="0.877" stop-color="#7544CF"/>
<stop offset="0.98" stop-color="#2B4FF2"/>
</radialGradient>
</defs>
</svg>
