<svg width="197" height="91" viewBox="0 0 197 91" fill="none" xmlns="http://www.w3.org/2000/svg">
<path d="M65.3374 38.0933H69.4483L76.5956 55.5452H76.8587L84.0061 38.0933H88.117V60.5439H84.8941V44.2979H84.6858L78.0646 60.5111H75.3898L68.7686 44.2869H68.5603V60.5439H65.3374V38.0933ZM112.544 49.3186C112.544 51.7157 112.105 53.7766 111.228 55.5013C110.351 57.2187 109.149 58.5415 107.622 59.4696C106.101 60.3905 104.373 60.8509 102.436 60.8509C100.492 60.8509 98.7567 60.3905 97.2293 59.4696C95.7092 58.5415 94.5107 57.2151 93.6337 55.4903C92.7567 53.7656 92.3182 51.7084 92.3182 49.3186C92.3182 46.9215 92.7567 44.8643 93.6337 43.1469C94.5107 41.4221 95.7092 40.0993 97.2293 39.1785C98.7567 38.2504 100.492 37.7863 102.436 37.7863C104.373 37.7863 106.101 38.2504 107.622 39.1785C109.149 40.0993 110.351 41.4221 111.228 43.1469C112.105 44.8643 112.544 46.9215 112.544 49.3186ZM109.189 49.3186C109.189 47.4916 108.893 45.9532 108.301 44.7035C107.717 43.4465 106.913 42.4964 105.89 41.8533C104.874 41.2029 103.723 40.8777 102.436 40.8777C101.143 40.8777 99.9882 41.2029 98.9723 41.8533C97.9565 42.4964 97.1526 43.4465 96.5606 44.7035C95.976 45.9532 95.6837 47.4916 95.6837 49.3186C95.6837 51.1456 95.976 52.6877 96.5606 53.9447C97.1526 55.1944 97.9565 56.1444 98.9723 56.7949C99.9882 57.438 101.143 57.7595 102.436 57.7595C103.723 57.7595 104.874 57.438 105.89 56.7949C106.913 56.1444 107.717 55.1944 108.301 53.9447C108.893 52.6877 109.189 51.1456 109.189 49.3186ZM134.887 38.0933V60.5439H131.774L120.362 44.0786H120.154V60.5439H116.767V38.0933H119.902L131.325 54.5805H131.533V38.0933H134.887ZM138.721 41.0092V38.0933H156.097V41.0092H149.092V60.5439H145.715V41.0092H138.721ZM159.18 60.5439H155.584L163.663 38.0933H167.577L175.656 60.5439H172.06L165.713 42.1712H165.538L159.18 60.5439ZM159.783 51.7522H171.447V54.6024H159.783V51.7522Z" fill="#070645"/>
<path d="M47.6201 76.0046V74.9841H53.7014V76.0046H51.2497V82.8418H50.068V76.0046H47.6201ZM59.5814 82.8418V76.9485H60.6902V77.8847H60.7516C60.859 77.5675 61.0483 77.3181 61.3194 77.1365C61.5931 76.9523 61.9026 76.8602 62.2479 76.8602C62.3195 76.8602 62.404 76.8628 62.5012 76.8679C62.6009 76.873 62.6789 76.8794 62.7352 76.8871V77.9844C62.6892 77.9716 62.6073 77.9576 62.4896 77.9422C62.372 77.9243 62.2543 77.9154 62.1367 77.9154C61.8655 77.9154 61.6238 77.9729 61.4115 78.088C61.2018 78.2006 61.0355 78.3579 60.9127 78.5599C60.7899 78.7595 60.7286 78.9871 60.7286 79.2429V82.8418H59.5814ZM70.6304 82.9722C70.2569 82.9722 69.9193 82.9032 69.6175 82.7651C69.3156 82.6244 69.0765 82.421 68.9 82.155C68.7261 81.889 68.6391 81.5629 68.6391 81.1766C68.6391 80.8441 68.703 80.5704 68.8309 80.3556C68.9588 80.1407 69.1315 79.9706 69.3489 79.8453C69.5663 79.7199 69.8093 79.6253 70.0779 79.5613C70.3465 79.4974 70.6202 79.4488 70.899 79.4155C71.2519 79.3746 71.5384 79.3414 71.7584 79.3158C71.9784 79.2877 72.1382 79.2429 72.238 79.1815C72.3378 79.1201 72.3876 79.0204 72.3876 78.8822V78.8554C72.3876 78.5203 72.293 78.2607 72.1037 78.0765C71.917 77.8923 71.6382 77.8003 71.2673 77.8003C70.8811 77.8003 70.5767 77.8859 70.3541 78.0573C70.1342 78.2261 69.982 78.4141 69.8976 78.6213L68.8194 78.3758C68.9473 78.0177 69.134 77.7286 69.3796 77.5087C69.6277 77.2861 69.9129 77.125 70.2352 77.0252C70.5575 76.9229 70.8964 76.8718 71.2519 76.8718C71.4873 76.8718 71.7367 76.8999 72.0001 76.9562C72.2661 77.0099 72.5142 77.1096 72.7445 77.2554C72.9772 77.4012 73.1678 77.6097 73.3161 77.8808C73.4645 78.1494 73.5387 78.4986 73.5387 78.9283V82.8418H72.4183V82.0361H72.3723C72.2981 82.1844 72.1868 82.3302 72.0385 82.4735C71.8901 82.6167 71.6996 82.7356 71.4668 82.8303C71.234 82.9249 70.9552 82.9722 70.6304 82.9722ZM70.8798 82.0514C71.197 82.0514 71.4681 81.9888 71.6932 81.8634C71.9208 81.7381 72.0935 81.5744 72.2111 81.3723C72.3314 81.1677 72.3915 80.949 72.3915 80.7162V79.9565C72.3505 79.9975 72.2713 80.0358 72.1536 80.0716C72.0385 80.1049 71.9068 80.1343 71.7584 80.1599C71.61 80.1829 71.4655 80.2046 71.3248 80.2251C71.1842 80.243 71.0665 80.2584 70.9719 80.2711C70.7493 80.2993 70.546 80.3466 70.3618 80.4131C70.1802 80.4796 70.0344 80.5755 69.9244 80.7009C69.817 80.8236 69.7633 80.9873 69.7633 81.192C69.7633 81.4759 69.8681 81.6908 70.0779 81.8366C70.2876 81.9798 70.5549 82.0514 70.8798 82.0514ZM81.454 79.3426V82.8418H80.3068V76.9485H81.408V77.9077H81.4809C81.6164 77.5956 81.8287 77.345 82.1178 77.1557C82.4094 76.9664 82.7764 76.8718 83.2189 76.8718C83.6205 76.8718 83.9722 76.9562 84.274 77.125C84.5759 77.2912 84.8099 77.5394 84.9762 77.8693C85.1424 78.1993 85.2256 78.6073 85.2256 79.0933V82.8418H84.0784V79.2314C84.0784 78.8042 83.9671 78.4704 83.7446 78.23C83.522 77.987 83.2164 77.8655 82.8276 77.8655C82.5616 77.8655 82.325 77.923 82.1178 78.0381C81.9131 78.1532 81.7507 78.3221 81.6305 78.5446C81.5128 78.7646 81.454 79.0306 81.454 79.3426ZM96.4204 78.3873L95.3806 78.5715C95.3371 78.4384 95.2681 78.3118 95.1734 78.1916C95.0813 78.0714 94.956 77.9729 94.7974 77.8962C94.6388 77.8194 94.4406 77.7811 94.2027 77.7811C93.8779 77.7811 93.6067 77.854 93.3893 77.9998C93.1719 78.143 93.0632 78.3285 93.0632 78.5561C93.0632 78.7531 93.1361 78.9116 93.2819 79.0319C93.4277 79.1521 93.663 79.2506 93.9879 79.3273L94.924 79.5422C95.4663 79.6675 95.8704 79.8606 96.1365 80.1215C96.4025 80.3824 96.5355 80.7213 96.5355 81.1383C96.5355 81.4912 96.4332 81.8059 96.2285 82.0821C96.0265 82.3558 95.7438 82.5707 95.3806 82.7267C95.02 82.8827 94.6018 82.9607 94.126 82.9607C93.4661 82.9607 92.9276 82.8201 92.5107 82.5387C92.0938 82.2548 91.838 81.8519 91.7433 81.3301L92.8522 81.1613C92.9212 81.4503 93.0632 81.669 93.2781 81.8174C93.4929 81.9632 93.773 82.0361 94.1183 82.0361C94.4943 82.0361 94.7949 81.9581 95.02 81.802C95.2451 81.6434 95.3576 81.4503 95.3576 81.2227C95.3576 81.0385 95.2885 80.8838 95.1504 80.7584C95.0148 80.6331 94.8064 80.5384 94.525 80.4745L93.5275 80.2558C92.9775 80.1305 92.5708 79.931 92.3074 79.6573C92.0465 79.3836 91.916 79.037 91.916 78.6175C91.916 78.2696 92.0132 77.9652 92.2076 77.7043C92.402 77.4434 92.6706 77.2401 93.0133 77.0943C93.3561 76.9459 93.7487 76.8718 94.1912 76.8718C94.8281 76.8718 95.3295 77.0099 95.6952 77.2861C96.061 77.5598 96.3027 77.9269 96.4204 78.3873ZM103.037 85.0518V76.9485H104.157V77.9039H104.253C104.32 77.7811 104.416 77.6391 104.541 77.478C104.666 77.3168 104.84 77.1761 105.063 77.0559C105.285 76.9331 105.579 76.8718 105.945 76.8718C106.421 76.8718 106.846 76.992 107.219 77.2324C107.593 77.4729 107.885 77.8194 108.098 78.2722C108.313 78.7249 108.42 79.2697 108.42 79.9067C108.42 80.5436 108.314 81.0897 108.102 81.545C107.889 81.9977 107.598 82.3469 107.227 82.5924C106.856 82.8354 106.433 82.9569 105.957 82.9569C105.599 82.9569 105.306 82.8968 105.078 82.7766C104.853 82.6564 104.677 82.5157 104.549 82.3545C104.421 82.1934 104.322 82.0501 104.253 81.9248H104.184V85.0518H103.037ZM104.161 79.8951C104.161 80.3095 104.221 80.6727 104.341 80.9848C104.462 81.2969 104.636 81.5411 104.863 81.7176C105.091 81.8916 105.37 81.9785 105.7 81.9785C106.042 81.9785 106.329 81.8877 106.559 81.7061C106.789 81.5219 106.963 81.2726 107.081 80.9579C107.201 80.6433 107.261 80.2891 107.261 79.8951C107.261 79.5063 107.202 79.1572 107.085 78.8477C106.97 78.5382 106.796 78.2939 106.563 78.1149C106.333 77.9358 106.045 77.8463 105.7 77.8463C105.367 77.8463 105.086 77.932 104.856 78.1034C104.628 78.2747 104.455 78.5139 104.338 78.8208C104.22 79.1278 104.161 79.4859 104.161 79.8951ZM117.428 82.9607C116.875 82.9607 116.393 82.8341 115.981 82.5809C115.57 82.3277 115.25 81.9734 115.022 81.5181C114.795 81.0628 114.681 80.5308 114.681 79.922C114.681 79.3107 114.795 78.7761 115.022 78.3182C115.25 77.8604 115.57 77.5048 115.981 77.2516C116.393 76.9984 116.875 76.8718 117.428 76.8718C117.98 76.8718 118.462 76.9984 118.874 77.2516C119.286 77.5048 119.606 77.8604 119.834 78.3182C120.061 78.7761 120.175 79.3107 120.175 79.922C120.175 80.5308 120.061 81.0628 119.834 81.5181C119.606 81.9734 119.286 82.3277 118.874 82.5809C118.462 82.8341 117.98 82.9607 117.428 82.9607ZM117.432 81.9977C117.79 81.9977 118.086 81.9031 118.322 81.7138C118.557 81.5245 118.731 81.2726 118.844 80.9579C118.959 80.6433 119.016 80.2967 119.016 79.9182C119.016 79.5422 118.959 79.1968 118.844 78.8822C118.731 78.5651 118.557 78.3106 118.322 78.1187C118.086 77.9269 117.79 77.831 117.432 77.831C117.071 77.831 116.772 77.9269 116.534 78.1187C116.299 78.3106 116.123 78.5651 116.008 78.8822C115.896 79.1968 115.839 79.5422 115.839 79.9182C115.839 80.2967 115.896 80.6433 116.008 80.9579C116.123 81.2726 116.299 81.5245 116.534 81.7138C116.772 81.9031 117.071 81.9977 117.432 81.9977ZM126.696 82.8418V76.9485H127.804V77.8847H127.866C127.973 77.5675 128.163 77.3181 128.434 77.1365C128.707 76.9523 129.017 76.8602 129.362 76.8602C129.434 76.8602 129.518 76.8628 129.615 76.8679C129.715 76.873 129.793 76.8794 129.849 76.8871V77.9844C129.803 77.9716 129.722 77.9576 129.604 77.9422C129.486 77.9243 129.369 77.9154 129.251 77.9154C128.98 77.9154 128.738 77.9729 128.526 78.088C128.316 78.2006 128.15 78.3579 128.027 78.5599C127.904 78.7595 127.843 78.9871 127.843 79.2429V82.8418H126.696ZM139.182 76.9485V77.8693H135.962V76.9485H139.182ZM136.826 75.5366H137.973V81.1114C137.973 81.3339 138.006 81.5015 138.073 81.614C138.139 81.724 138.225 81.7995 138.33 81.8404C138.437 81.8788 138.554 81.8979 138.679 81.8979C138.771 81.8979 138.852 81.8916 138.921 81.8788C138.99 81.866 139.043 81.8557 139.082 81.8481L139.289 82.7958C139.222 82.8213 139.128 82.8469 139.005 82.8725C138.882 82.9006 138.729 82.916 138.545 82.9185C138.243 82.9236 137.961 82.8699 137.701 82.7574C137.44 82.6448 137.229 82.4709 137.067 82.2356C136.906 82.0003 136.826 81.7048 136.826 81.3493V75.5366ZM147.406 82.9722C147.032 82.9722 146.695 82.9032 146.393 82.7651C146.091 82.6244 145.852 82.421 145.675 82.155C145.501 81.889 145.414 81.5629 145.414 81.1766C145.414 80.8441 145.478 80.5704 145.606 80.3556C145.734 80.1407 145.907 79.9706 146.124 79.8453C146.342 79.7199 146.585 79.6253 146.853 79.5613C147.122 79.4974 147.396 79.4488 147.674 79.4155C148.027 79.3746 148.314 79.3414 148.534 79.3158C148.754 79.2877 148.914 79.2429 149.013 79.1815C149.113 79.1201 149.163 79.0204 149.163 78.8822V78.8554C149.163 78.5203 149.068 78.2607 148.879 78.0765C148.692 77.8923 148.414 77.8003 148.043 77.8003C147.656 77.8003 147.352 77.8859 147.129 78.0573C146.91 78.2261 146.757 78.4141 146.673 78.6213L145.595 78.3758C145.723 78.0177 145.909 77.7286 146.155 77.5087C146.403 77.2861 146.688 77.125 147.011 77.0252C147.333 76.9229 147.672 76.8718 148.027 76.8718C148.263 76.8718 148.512 76.8999 148.775 76.9562C149.041 77.0099 149.29 77.1096 149.52 77.2554C149.753 77.4012 149.943 77.6097 150.091 77.8808C150.24 78.1494 150.314 78.4986 150.314 78.9283V82.8418H149.194V82.0361H149.148C149.073 82.1844 148.962 82.3302 148.814 82.4735C148.665 82.6167 148.475 82.7356 148.242 82.8303C148.009 82.9249 147.731 82.9722 147.406 82.9722ZM147.655 82.0514C147.972 82.0514 148.243 81.9888 148.469 81.8634C148.696 81.7381 148.869 81.5744 148.986 81.3723C149.107 81.1677 149.167 80.949 149.167 80.7162V79.9565C149.126 79.9975 149.047 80.0358 148.929 80.0716C148.814 80.1049 148.682 80.1343 148.534 80.1599C148.385 80.1829 148.241 80.2046 148.1 80.2251C147.96 80.243 147.842 80.2584 147.747 80.2711C147.525 80.2993 147.321 80.3466 147.137 80.4131C146.956 80.4796 146.81 80.5755 146.7 80.7009C146.592 80.8236 146.539 80.9873 146.539 81.192C146.539 81.4759 146.643 81.6908 146.853 81.8366C147.063 81.9798 147.33 82.0514 147.655 82.0514ZM159.833 76.9485V77.8693H156.614V76.9485H159.833ZM157.477 75.5366H158.625V81.1114C158.625 81.3339 158.658 81.5015 158.724 81.614C158.791 81.724 158.876 81.7995 158.981 81.8404C159.089 81.8788 159.205 81.8979 159.331 81.8979C159.423 81.8979 159.503 81.8916 159.572 81.8788C159.641 81.866 159.695 81.8557 159.733 81.8481L159.941 82.7958C159.874 82.8213 159.779 82.8469 159.657 82.8725C159.534 82.9006 159.38 82.916 159.196 82.9185C158.894 82.9236 158.613 82.8699 158.352 82.7574C158.091 82.6448 157.88 82.4709 157.719 82.2356C157.558 82.0003 157.477 81.7048 157.477 81.3493V75.5366ZM166.342 82.8418V76.9485H167.489V82.8418H166.342ZM166.922 76.0392C166.722 76.0392 166.551 75.9727 166.407 75.8397C166.267 75.7041 166.196 75.5429 166.196 75.3562C166.196 75.1669 166.267 75.0058 166.407 74.8728C166.551 74.7372 166.722 74.6694 166.922 74.6694C167.121 74.6694 167.291 74.7372 167.432 74.8728C167.575 75.0058 167.647 75.1669 167.647 75.3562C167.647 75.5429 167.575 75.7041 167.432 75.8397C167.291 75.9727 167.121 76.0392 166.922 76.0392ZM176.755 82.9607C176.203 82.9607 175.721 82.8341 175.309 82.5809C174.897 82.3277 174.577 81.9734 174.35 81.5181C174.122 81.0628 174.008 80.5308 174.008 79.922C174.008 79.3107 174.122 78.7761 174.35 78.3182C174.577 77.8604 174.897 77.5048 175.309 77.2516C175.721 76.9984 176.203 76.8718 176.755 76.8718C177.308 76.8718 177.79 76.9984 178.202 77.2516C178.614 77.5048 178.933 77.8604 179.161 78.3182C179.389 78.7761 179.502 79.3107 179.502 79.922C179.502 80.5308 179.389 81.0628 179.161 81.5181C178.933 81.9734 178.614 82.3277 178.202 82.5809C177.79 82.8341 177.308 82.9607 176.755 82.9607ZM176.759 81.9977C177.117 81.9977 177.414 81.9031 177.649 81.7138C177.885 81.5245 178.059 81.2726 178.171 80.9579C178.286 80.6433 178.344 80.2967 178.344 79.9182C178.344 79.5422 178.286 79.1968 178.171 78.8822C178.059 78.5651 177.885 78.3106 177.649 78.1187C177.414 77.9269 177.117 77.831 176.759 77.831C176.399 77.831 176.099 77.9269 175.861 78.1187C175.626 78.3106 175.451 78.5651 175.336 78.8822C175.223 79.1968 175.167 79.5422 175.167 79.9182C175.167 80.2967 175.223 80.6433 175.336 80.9579C175.451 81.2726 175.626 81.5245 175.861 81.7138C176.099 81.9031 176.399 81.9977 176.759 81.9977ZM187.17 79.3426V82.8418H186.023V76.9485H187.124V77.9077H187.197C187.333 77.5956 187.545 77.345 187.834 77.1557C188.126 76.9664 188.493 76.8718 188.935 76.8718C189.337 76.8718 189.689 76.9562 189.99 77.125C190.292 77.2912 190.526 77.5394 190.693 77.8693C190.859 78.1993 190.942 78.6073 190.942 79.0933V82.8418H189.795V79.2314C189.795 78.8042 189.683 78.4704 189.461 78.23C189.238 77.987 188.933 77.8655 188.544 77.8655C188.278 77.8655 188.041 77.923 187.834 78.0381C187.629 78.1532 187.467 78.3221 187.347 78.5446C187.229 78.7646 187.17 79.0306 187.17 79.3426Z" fill="#070645"/>
<path d="M24.3183 0.0103856C23.8248 0.0262296 23.55 0.0549001 23.55 0.0549001C23.3039 0.0794321 23.0693 0.192771 22.8761 0.380502C22.6828 0.568233 22.5397 0.821872 22.4649 1.10916C22.3901 1.39645 22.387 1.7044 22.456 1.99385C22.525 2.28331 22.6629 2.54118 22.8523 2.73467C22.8523 2.73467 23.8299 3.75146 24.5444 5.09987C24.9017 5.77408 25.1706 6.5071 25.2495 7.13863C25.3283 7.77016 25.2721 8.26797 24.931 8.86283C24.2516 10.0477 23.9307 10.1166 23.375 10.0558C22.8193 9.99499 21.9098 9.46844 20.8392 8.67587C18.6981 7.09072 15.8142 4.52868 12.2059 5.39663C9.65255 6.01113 8.0568 5.62935 6.58251 4.75859C5.10822 3.88784 3.74081 2.40597 2.01181 0.752293C1.81827 0.567548 1.58427 0.456838 1.33928 0.434104C1.0943 0.411371 0.849277 0.477631 0.635082 0.62454C0.420886 0.771449 0.247093 0.992437 0.135589 1.25967C0.0240852 1.52691 -0.020143 1.82845 0.00847448 2.12631C0.238101 4.49361 0.593969 8.45626 1.77598 12.2192C2.95798 15.9822 5.07283 19.6977 8.77305 21.0064C11.8294 22.0871 12.8199 23.5547 13.1614 24.7871C13.5029 26.0195 13.1809 27.3849 12.8259 28.2147C12.4887 29.0033 11.06 29.8711 9.08911 29.6362C7.11824 29.4014 4.79966 28.1692 3.02076 25.5439C2.8502 25.2914 2.61743 25.1129 2.35707 25.0349C2.09672 24.9569 1.82269 24.9836 1.57575 25.111C1.32881 25.2383 1.12215 25.4596 0.986515 25.7418C0.850876 26.0241 0.793505 26.3523 0.822936 26.6775C1.14024 30.2583 1.69314 32.715 2.49076 34.5803C3.28837 36.4457 4.34021 37.6551 5.39121 38.64C7.49321 40.61 9.59541 41.8286 12.0139 47.3619C12.0155 47.3668 12.0171 47.3718 12.0187 47.3767C12.9648 49.4846 12.757 51.6166 12.0455 52.7927C11.3339 53.9687 10.2594 54.5488 8.26735 53.2764C8.04969 53.1373 7.80317 53.0799 7.55885 53.1114C7.31452 53.143 7.0833 53.2621 6.89432 53.4538C6.70534 53.6454 6.56705 53.901 6.49685 54.1884C6.42665 54.4758 6.4277 54.7821 6.49985 55.0688C8.03232 61.159 10.7317 64.962 14.0294 67.1204C17.2738 69.2439 20.9985 69.8183 24.7705 69.9901C26.3661 71.651 28.1767 72.6342 30.1605 72.6342C30.3327 72.6342 30.5015 72.6189 30.6711 72.6045C30.7551 72.6251 30.8407 72.6351 30.9264 72.6342H47.0138C50.8427 72.6342 54.0485 69.0252 56.2452 63.7966C58.4419 58.5681 59.7486 51.528 59.7486 43.7651C59.7486 36.0022 58.4419 28.9592 56.2452 23.7307C54.1509 18.746 51.1378 15.2424 47.5438 14.9257C42.6143 2.47893 31.6174 0.329309 26.3994 0.0400619C25.524 -0.00846931 24.8118 -0.00545834 24.3183 0.0103856ZM26.3751 3.08782C30.8998 3.35504 40.1258 5.15291 44.7114 14.896H40.362C40.1861 14.8788 40.0106 14.8634 39.832 14.8634C39.7421 14.8624 39.6525 14.8734 39.5645 14.896H30.9264C30.8399 14.895 30.7535 14.9049 30.6687 14.9257C30.4999 14.9114 30.3318 14.896 30.1605 14.896C26.3316 14.896 23.1259 18.5021 20.9292 23.7307C18.7325 28.9592 17.4258 36.0022 17.4258 43.7651C17.4258 51.5281 18.7325 58.5681 20.9292 63.7966C21.379 64.8673 21.8811 65.8495 22.4122 66.7672C19.7438 66.4595 17.2862 65.8021 15.2061 64.4406C13.0146 63.0062 11.3089 60.4284 9.95219 56.8168C11.6404 56.8644 13.1505 56.0846 14.0488 54.5999C15.4344 52.3098 15.5575 48.9368 14.202 45.9167C11.5589 39.8779 8.75399 37.9594 6.90586 36.2273C5.98092 35.3605 5.29653 34.5757 4.69831 33.1766C4.46459 32.63 4.34943 31.2976 4.15129 30.5087C5.69822 31.6685 7.30138 32.4762 8.84598 32.6602C11.4628 32.972 13.9752 32.0965 15.0335 29.6214C15.5996 28.2982 16.1659 26.1429 15.5197 23.8108C14.8735 21.4786 12.997 19.3378 9.46595 18.0892C6.7219 17.1187 5.13052 14.4101 4.10023 11.1301C3.48083 9.15822 3.13695 7.13087 2.88462 5.23341C3.7265 6.01846 4.50877 6.91037 5.49818 7.49475C7.40038 8.61824 9.71634 9.09113 12.6873 8.37613C15.1051 7.79456 17.2875 9.60187 19.5482 11.2755C20.6786 12.1123 21.8024 12.9349 23.1538 13.0828C24.5051 13.2307 25.9622 12.3668 26.9708 10.6078C27.6827 9.36642 27.8651 7.92568 27.7099 6.68162C27.5546 5.43756 27.1167 4.35834 26.6353 3.44987C26.5209 3.23395 26.4945 3.28608 26.3751 3.08782ZM30.1605 17.9349C32.6777 17.9349 35.2174 20.4494 37.1795 25.1195C37.513 25.9133 37.8177 26.7825 38.1082 27.6835C38.1352 27.8454 38.1837 28.0007 38.2517 28.1435C39.5848 32.4717 40.4082 37.8809 40.4082 43.7651C40.4082 51.107 39.1416 57.7407 37.1795 62.4107C35.2174 67.0808 32.6777 69.5954 30.1605 69.5954C27.6434 69.5954 25.1061 67.0808 23.144 62.4107C21.1819 57.7407 19.9154 51.107 19.9154 43.7651C19.9154 36.4233 21.1819 29.7896 23.144 25.1195C25.1061 20.4494 27.6434 17.9349 30.1605 17.9349ZM35.9007 17.9349H40.0702C42.2288 18.1057 44.6354 20.5821 46.5227 25.1106C47.1396 26.5908 47.6815 28.2826 48.1492 30.1111L40.3182 26.2324C40.0286 25.3641 39.726 24.52 39.3943 23.7307C38.4204 21.4125 37.2382 19.4423 35.9007 17.9349ZM45.3411 17.9349H47.0138C49.5309 17.9349 52.0682 20.4494 54.0303 25.1195C54.1537 25.4131 54.2651 25.7366 54.3829 26.0454L50.6923 29.8351C50.1542 27.6135 49.5006 25.5556 48.74 23.7307C47.7766 21.4191 46.6281 19.4476 45.3411 17.9349ZM28.8501 27.0514C27.7531 27.0514 26.7943 27.7728 26.0737 28.7459C25.353 29.7191 24.789 30.984 24.3207 32.4792C23.3842 35.4696 22.845 39.4124 22.845 43.7651C22.845 48.1179 23.3842 52.0606 24.3207 55.051C24.789 56.5462 25.353 57.8111 26.0737 58.7843C26.7943 59.7574 27.7531 60.4788 28.8501 60.4788C29.9471 60.4788 30.9035 59.7574 31.6241 58.7843C32.3448 57.8111 32.9088 56.5462 33.3771 55.051C34.3137 52.0606 34.8528 48.1179 34.8528 43.7651C34.8528 39.4124 34.3137 35.4696 33.3771 32.4792C32.9088 30.984 32.3448 29.7191 31.6241 28.7459C30.9035 27.7728 29.9471 27.0514 28.8501 27.0514ZM55.3699 29.0041C56.3346 32.4205 56.9818 36.4549 57.1861 40.8183L52.2555 44.8958C52.2619 44.5227 52.2799 44.1567 52.2799 43.78C52.2799 40.0087 51.9525 36.4131 51.373 33.1054L55.3699 29.0041ZM41.3977 30.0458L48.9418 33.782C49.4793 36.8622 49.7903 40.2374 49.7903 43.78C49.7903 44.3703 49.7681 44.9475 49.7514 45.5279L42.8443 41.1892C42.6926 37.1848 42.1899 33.42 41.3977 30.0458ZM28.8501 30.0903C29.0673 30.0903 29.3608 30.2172 29.7788 30.7817C30.1969 31.3463 30.6575 32.308 31.0504 33.5624C31.8361 36.0712 32.3632 39.7263 32.3632 43.7651C32.3632 47.8039 31.8361 51.456 31.0504 53.9649C30.6575 55.2193 30.1969 56.1809 29.7788 56.7455C29.3608 57.3101 29.0673 57.44 28.8501 57.44C28.633 57.44 28.3395 57.3101 27.9214 56.7455C27.5033 56.1809 27.0403 55.2193 26.6474 53.9649C25.8617 51.456 25.3346 47.8039 25.3346 43.7651C25.3346 39.7263 25.8617 36.0712 26.6474 33.5624C27.0403 32.308 27.5033 31.3463 27.9214 30.7817C28.3395 30.2172 28.633 30.0903 28.8501 30.0903ZM57.2444 44.4417C57.2007 48.5155 56.7711 52.35 56.0483 55.7395L50.3349 59.0751C51.1928 55.9654 51.7962 52.4654 52.0829 48.7092L57.2444 44.4417ZM42.8783 44.6287L49.5739 48.8309C49.2259 52.9673 48.4638 56.7292 47.4344 59.8823L41.7016 56.06C42.4153 52.5689 42.8267 48.7097 42.8783 44.6287ZM40.9965 59.0514L46.3987 62.6541C44.4618 67.1321 42.0111 69.5301 39.832 69.5301C39.7044 69.5281 39.5773 69.5502 39.4551 69.5954H35.9007C37.2382 68.0873 38.4204 66.1147 39.3943 63.7966C40.0023 62.3496 40.5338 60.7528 40.9965 59.0514ZM55.0004 59.7191C54.6985 60.6673 54.3795 61.5798 54.0303 62.4107C52.0682 67.0809 49.5309 69.5954 47.0138 69.5954H45.2779C46.5907 68.0864 47.7608 66.1016 48.74 63.7669C48.8076 63.6058 48.8661 63.4271 48.9321 63.2624L55.0004 59.7191Z" fill="#070645"/>
</svg>
