<svg width="122" height="46" viewBox="0 0 122 46" fill="none" xmlns="http://www.w3.org/2000/svg">
<path d="M38.0809 20.6915H40.777L45.4647 32.1375H45.6373L50.3249 20.6915H53.0211V35.416H50.9073V24.7609H50.7707L46.4281 35.3944H44.6738L40.3313 24.7537H40.1947V35.416H38.0809V20.6915ZM69.0415 28.0538C69.0415 29.6259 68.7539 30.9776 68.1787 32.1088C67.6036 33.2351 66.8151 34.1027 65.8133 34.7114C64.8164 35.3154 63.6828 35.6173 62.4126 35.6173C61.1376 35.6173 59.9993 35.3154 58.9975 34.7114C58.0005 34.1027 57.2145 33.2327 56.6393 32.1016C56.0641 30.9704 55.7765 29.6211 55.7765 28.0538C55.7765 26.4816 56.0641 25.1324 56.6393 24.006C57.2145 22.8748 58.0005 22.0072 58.9975 21.4033C59.9993 20.7946 61.1376 20.4902 62.4126 20.4902C63.6828 20.4902 64.8164 20.7946 65.8133 21.4033C66.8151 22.0072 67.6036 22.8748 68.1787 24.006C68.7539 25.1324 69.0415 26.4816 69.0415 28.0538ZM66.8415 28.0538C66.8415 26.8555 66.6473 25.8465 66.2591 25.0269C65.8756 24.2025 65.3484 23.5794 64.6774 23.1576C64.0111 22.731 63.2562 22.5177 62.4126 22.5177C61.5642 22.5177 60.8069 22.731 60.1407 23.1576C59.4744 23.5794 58.9472 24.2025 58.5589 25.0269C58.1755 25.8465 57.9838 26.8555 57.9838 28.0538C57.9838 29.2521 58.1755 30.2634 58.5589 31.0878C58.9472 31.9074 59.4744 32.5306 60.1407 32.9571C60.8069 33.3789 61.5642 33.5898 62.4126 33.5898C63.2562 33.5898 64.0111 33.3789 64.6774 32.9571C65.3484 32.5306 65.8756 31.9074 66.2591 31.0878C66.6473 30.2634 66.8415 29.2521 66.8415 28.0538ZM83.6959 20.6915V35.416H81.654L74.1696 24.6171H74.033V35.416H71.8113V20.6915H73.8676L81.3593 31.5048H81.4959V20.6915H83.6959ZM86.2105 22.604V20.6915H97.6062V22.604H93.0119V35.416H90.7975V22.604H86.2105ZM99.6283 35.416H97.27L102.569 20.6915H105.136L110.434 35.416H108.076L103.913 23.3661H103.798L99.6283 35.416ZM100.024 29.6499H107.674V31.5192H100.024V29.6499Z" fill="white"/>
<path d="M26.5421 39.2775V38.6081H30.5306V39.2775H28.9226V43.7617H28.1476V39.2775H26.5421ZM34.387 43.7617V39.8965H35.1142V40.5105H35.1545C35.225 40.3025 35.3491 40.139 35.5269 40.0198C35.7064 39.8991 35.9094 39.8387 36.1359 39.8387C36.1829 39.8387 36.2382 39.8403 36.302 39.8437C36.3674 39.8471 36.4186 39.8512 36.4555 39.8563V40.576C36.4253 40.5676 36.3716 40.5584 36.2944 40.5483C36.2173 40.5365 36.1401 40.5307 36.0629 40.5307C35.8851 40.5307 35.7266 40.5684 35.5873 40.6439C35.4498 40.7177 35.3407 40.8209 35.2602 40.9534C35.1797 41.0843 35.1394 41.2336 35.1394 41.4013V43.7617H34.387ZM41.6336 43.8473C41.3887 43.8473 41.1672 43.802 40.9693 43.7114C40.7713 43.6191 40.6145 43.4858 40.4987 43.3113C40.3846 43.1368 40.3276 42.9229 40.3276 42.6696C40.3276 42.4515 40.3695 42.272 40.4534 42.1311C40.5373 41.9902 40.6505 41.8786 40.7931 41.7964C40.9357 41.7142 41.0951 41.6521 41.2713 41.6102C41.4474 41.5683 41.6269 41.5364 41.8098 41.5146C42.0413 41.4877 42.2292 41.4659 42.3734 41.4492C42.5177 41.4307 42.6226 41.4013 42.688 41.3611C42.7534 41.3208 42.7861 41.2554 42.7861 41.1648V41.1472C42.7861 40.9274 42.724 40.7571 42.5999 40.6364C42.4774 40.5156 42.2946 40.4552 42.0513 40.4552C41.798 40.4552 41.5984 40.5114 41.4524 40.6238C41.3082 40.7345 41.2083 40.8578 41.153 40.9937L40.4459 40.8326C40.5298 40.5978 40.6522 40.4082 40.8133 40.2639C40.976 40.118 41.163 40.0123 41.3744 39.9469C41.5858 39.8798 41.8081 39.8462 42.0413 39.8462C42.1956 39.8462 42.3592 39.8647 42.532 39.9016C42.7064 39.9368 42.8692 40.0022 43.0201 40.0979C43.1728 40.1935 43.2978 40.3302 43.3951 40.508C43.4924 40.6842 43.541 40.9132 43.541 41.195V43.7617H42.8063V43.2333H42.7761C42.7274 43.3306 42.6544 43.4262 42.5571 43.5201C42.4598 43.6141 42.3348 43.6921 42.1822 43.7542C42.0295 43.8162 41.8467 43.8473 41.6336 43.8473ZM41.7972 43.2433C42.0052 43.2433 42.183 43.2022 42.3307 43.12C42.48 43.0378 42.5932 42.9305 42.6704 42.7979C42.7492 42.6637 42.7886 42.5203 42.7886 42.3676V41.8694C42.7618 41.8962 42.7098 41.9214 42.6326 41.9449C42.5571 41.9667 42.4707 41.986 42.3734 42.0028C42.2761 42.0179 42.1813 42.0321 42.0891 42.0455C41.9968 42.0573 41.9196 42.0673 41.8576 42.0757C41.7116 42.0942 41.5783 42.1252 41.4575 42.1688C41.3384 42.2125 41.2427 42.2754 41.1706 42.3576C41.1001 42.4381 41.0649 42.5455 41.0649 42.6797C41.0649 42.8659 41.1337 43.0068 41.2713 43.1024C41.4088 43.1964 41.5841 43.2433 41.7972 43.2433ZM48.7324 41.4668V43.7617H47.98V39.8965H48.7022V40.5256H48.75C48.8389 40.321 48.9781 40.1566 49.1677 40.0324C49.359 39.9083 49.5997 39.8462 49.8899 39.8462C50.1533 39.8462 50.384 39.9016 50.5819 40.0123C50.7799 40.1213 50.9334 40.2841 51.0424 40.5005C51.1515 40.7169 51.206 40.9845 51.206 41.3032V43.7617H50.4536V41.3938C50.4536 41.1136 50.3806 40.8947 50.2347 40.737C50.0887 40.5776 49.8882 40.498 49.6333 40.498C49.4588 40.498 49.3036 40.5357 49.1677 40.6112C49.0335 40.6867 48.927 40.7974 48.8481 40.9434C48.771 41.0876 48.7324 41.2621 48.7324 41.4668ZM58.5482 40.8402L57.8663 40.961C57.8378 40.8737 57.7925 40.7907 57.7304 40.7119C57.67 40.633 57.5878 40.5684 57.4838 40.5181C57.3798 40.4678 57.2498 40.4426 57.0938 40.4426C56.8807 40.4426 56.7029 40.4904 56.5603 40.586C56.4177 40.68 56.3464 40.8016 56.3464 40.9509C56.3464 41.0801 56.3942 41.1841 56.4898 41.2629C56.5854 41.3418 56.7398 41.4064 56.9528 41.4567L57.5668 41.5976C57.9225 41.6798 58.1875 41.8065 58.362 41.9776C58.5365 42.1487 58.6237 42.371 58.6237 42.6444C58.6237 42.8759 58.5566 43.0823 58.4224 43.2635C58.2899 43.443 58.1045 43.5839 57.8663 43.6862C57.6297 43.7886 57.3555 43.8397 57.0434 43.8397C56.6106 43.8397 56.2575 43.7475 55.984 43.5629C55.7106 43.3767 55.5428 43.1125 55.4807 42.7703L56.208 42.6595C56.2533 42.8491 56.3464 42.9925 56.4873 43.0898C56.6282 43.1855 56.8119 43.2333 57.0384 43.2333C57.285 43.2333 57.4821 43.1821 57.6297 43.0798C57.7774 42.9758 57.8512 42.8491 57.8512 42.6998C57.8512 42.579 57.8059 42.4775 57.7153 42.3953C57.6264 42.3131 57.4897 42.251 57.3051 42.2091L56.6509 42.0657C56.2902 41.9835 56.0234 41.8526 55.8507 41.6731C55.6795 41.4936 55.594 41.2663 55.594 40.9912C55.594 40.763 55.6577 40.5634 55.7852 40.3923C55.9127 40.2212 56.0889 40.0878 56.3137 39.9922C56.5385 39.8949 56.796 39.8462 57.0862 39.8462C57.5039 39.8462 57.8327 39.9368 58.0726 40.118C58.3125 40.2975 58.4711 40.5382 58.5482 40.8402ZM62.8878 45.2112V39.8965H63.6226V40.5231H63.6855C63.7291 40.4426 63.792 40.3495 63.8742 40.2438C63.9564 40.1381 64.0705 40.0458 64.2164 39.967C64.3624 39.8865 64.5553 39.8462 64.7952 39.8462C65.1072 39.8462 65.3857 39.9251 65.6306 40.0828C65.8756 40.2404 66.0677 40.4678 66.2069 40.7647C66.3478 41.0616 66.4183 41.419 66.4183 41.8367C66.4183 42.2544 66.3487 42.6126 66.2094 42.9112C66.0702 43.2081 65.8789 43.4371 65.6357 43.5982C65.3924 43.7575 65.1148 43.8372 64.8027 43.8372C64.5679 43.8372 64.3758 43.7978 64.2265 43.7189C64.0789 43.6401 63.9631 43.5478 63.8792 43.4421C63.7954 43.3364 63.7308 43.2425 63.6855 43.1603H63.6402V45.2112H62.8878ZM63.6251 41.8291C63.6251 42.1009 63.6645 42.3391 63.7433 42.5438C63.8222 42.7485 63.9363 42.9087 64.0856 43.0244C64.2349 43.1385 64.4177 43.1955 64.6341 43.1955C64.8589 43.1955 65.0468 43.136 65.1978 43.0169C65.3488 42.8961 65.4629 42.7325 65.54 42.5262C65.6189 42.3198 65.6583 42.0875 65.6583 41.8291C65.6583 41.5741 65.6197 41.3451 65.5426 41.1422C65.4671 40.9392 65.353 40.779 65.2003 40.6615C65.0494 40.5441 64.8606 40.4854 64.6341 40.4854C64.4161 40.4854 64.2315 40.5416 64.0805 40.654C63.9312 40.7664 63.818 40.9232 63.7408 41.1245C63.6637 41.3259 63.6251 41.5607 63.6251 41.8291ZM72.3262 43.8397C71.9638 43.8397 71.6476 43.7567 71.3775 43.5906C71.1074 43.4245 70.8977 43.1922 70.7484 42.8936C70.5991 42.595 70.5244 42.246 70.5244 41.8467C70.5244 41.4458 70.5991 41.0952 70.7484 40.7949C70.8977 40.4946 71.1074 40.2614 71.3775 40.0953C71.6476 39.9293 71.9638 39.8462 72.3262 39.8462C72.6885 39.8462 73.0047 39.9293 73.2748 40.0953C73.5449 40.2614 73.7546 40.4946 73.9039 40.7949C74.0532 41.0952 74.1279 41.4458 74.1279 41.8467C74.1279 42.246 74.0532 42.595 73.9039 42.8936C73.7546 43.1922 73.5449 43.4245 73.2748 43.5906C73.0047 43.7567 72.6885 43.8397 72.3262 43.8397ZM72.3287 43.2081C72.5635 43.2081 72.7581 43.146 72.9125 43.0219C73.0668 42.8978 73.1809 42.7325 73.2547 42.5262C73.3302 42.3198 73.3679 42.0925 73.3679 41.8442C73.3679 41.5976 73.3302 41.3711 73.2547 41.1648C73.1809 40.9568 73.0668 40.7899 72.9125 40.664C72.7581 40.5382 72.5635 40.4753 72.3287 40.4753C72.0921 40.4753 71.8959 40.5382 71.7398 40.664C71.5855 40.7899 71.4706 40.9568 71.3951 41.1648C71.3213 41.3711 71.2844 41.5976 71.2844 41.8442C71.2844 42.0925 71.3213 42.3198 71.3951 42.5262C71.4706 42.7325 71.5855 42.8978 71.7398 43.0219C71.8959 43.146 72.0921 43.2081 72.3287 43.2081ZM78.4045 43.7617V39.8965H79.1318V40.5105H79.172C79.2425 40.3025 79.3666 40.139 79.5445 40.0198C79.724 39.8991 79.9269 39.8387 80.1534 39.8387C80.2004 39.8387 80.2558 39.8403 80.3195 39.8437C80.3849 39.8471 80.4361 39.8512 80.473 39.8563V40.576C80.4428 40.5676 80.3891 40.5584 80.312 40.5483C80.2348 40.5365 80.1576 40.5307 80.0804 40.5307C79.9026 40.5307 79.7441 40.5684 79.6048 40.6439C79.4673 40.7177 79.3582 40.8209 79.2777 40.9534C79.1972 41.0843 79.1569 41.2336 79.1569 41.4013V43.7617H78.4045ZM86.5935 39.8965V40.5005H84.4823V39.8965H86.5935ZM85.0485 38.9705H85.8009V42.6268C85.8009 42.7728 85.8227 42.8827 85.8663 42.9565C85.9099 43.0286 85.9661 43.0781 86.0349 43.1049C86.1053 43.1301 86.1817 43.1427 86.2639 43.1427C86.3243 43.1427 86.3771 43.1385 86.4224 43.1301C86.4677 43.1217 86.5029 43.115 86.5281 43.11L86.664 43.7315C86.6204 43.7483 86.5583 43.7651 86.4778 43.7818C86.3972 43.8003 86.2966 43.8104 86.1758 43.812C85.9778 43.8154 85.7933 43.7802 85.6222 43.7064C85.4511 43.6325 85.3127 43.5185 85.207 43.3641C85.1013 43.2098 85.0485 43.016 85.0485 42.7828V38.9705ZM91.9874 43.8473C91.7425 43.8473 91.5211 43.802 91.3231 43.7114C91.1252 43.6191 90.9683 43.4858 90.8525 43.3113C90.7385 43.1368 90.6814 42.9229 90.6814 42.6696C90.6814 42.4515 90.7234 42.272 90.8072 42.1311C90.8911 41.9902 91.0044 41.8786 91.147 41.7964C91.2896 41.7142 91.4489 41.6521 91.6251 41.6102C91.8012 41.5683 91.9807 41.5364 92.1636 41.5146C92.3951 41.4877 92.583 41.4659 92.7273 41.4492C92.8715 41.4307 92.9764 41.4013 93.0418 41.3611C93.1072 41.3208 93.1399 41.2554 93.1399 41.1648V41.1472C93.1399 40.9274 93.0779 40.7571 92.9537 40.6364C92.8313 40.5156 92.6484 40.4552 92.4052 40.4552C92.1518 40.4552 91.9522 40.5114 91.8063 40.6238C91.662 40.7345 91.5622 40.8578 91.5068 40.9937L90.7997 40.8326C90.8836 40.5978 91.006 40.4082 91.1671 40.2639C91.3298 40.118 91.5169 40.0123 91.7282 39.9469C91.9396 39.8798 92.1619 39.8462 92.3951 39.8462C92.5494 39.8462 92.713 39.8647 92.8858 39.9016C93.0603 39.9368 93.223 40.0022 93.374 40.0979C93.5266 40.1935 93.6516 40.3302 93.7489 40.508C93.8462 40.6842 93.8949 40.9132 93.8949 41.195V43.7617H93.1601V43.2333H93.1299C93.0812 43.3306 93.0083 43.4262 92.911 43.5201C92.8136 43.6141 92.6887 43.6921 92.536 43.7542C92.3833 43.8162 92.2005 43.8473 91.9874 43.8473ZM92.151 43.2433C92.359 43.2433 92.5368 43.2022 92.6845 43.12C92.8338 43.0378 92.947 42.9305 93.0242 42.7979C93.103 42.6637 93.1425 42.5203 93.1425 42.3676V41.8694C93.1156 41.8962 93.0636 41.9214 92.9864 41.9449C92.911 41.9667 92.8246 41.986 92.7273 42.0028C92.63 42.0179 92.5352 42.0321 92.4429 42.0455C92.3506 42.0573 92.2735 42.0673 92.2114 42.0757C92.0654 42.0942 91.9321 42.1252 91.8113 42.1688C91.6922 42.2125 91.5966 42.2754 91.5244 42.3576C91.454 42.4381 91.4187 42.5455 91.4187 42.6797C91.4187 42.8659 91.4875 43.0068 91.6251 43.1024C91.7626 43.1964 91.9379 43.2433 92.151 43.2433ZM100.138 39.8965V40.5005H98.0268V39.8965H100.138ZM98.593 38.9705H99.3454V42.6268C99.3454 42.7728 99.3672 42.8827 99.4108 42.9565C99.4544 43.0286 99.5106 43.0781 99.5794 43.1049C99.6499 43.1301 99.7262 43.1427 99.8084 43.1427C99.8688 43.1427 99.9216 43.1385 99.9669 43.1301C100.012 43.1217 100.047 43.115 100.073 43.11L100.209 43.7315C100.165 43.7483 100.103 43.7651 100.022 43.7818C99.9418 43.8003 99.8411 43.8104 99.7203 43.812C99.5224 43.8154 99.3378 43.7802 99.1667 43.7064C98.9956 43.6325 98.8572 43.5185 98.7515 43.3641C98.6458 43.2098 98.593 43.016 98.593 42.7828V38.9705ZM104.407 43.7617V39.8965H105.16V43.7617H104.407ZM104.787 39.3002C104.656 39.3002 104.544 39.2565 104.45 39.1693C104.358 39.0804 104.312 38.9747 104.312 38.8522C104.312 38.7281 104.358 38.6224 104.45 38.5352C104.544 38.4463 104.656 38.4018 104.787 38.4018C104.918 38.4018 105.03 38.4463 105.122 38.5352C105.216 38.6224 105.263 38.7281 105.263 38.8522C105.263 38.9747 105.216 39.0804 105.122 39.1693C105.03 39.2565 104.918 39.3002 104.787 39.3002ZM111.237 43.8397C110.874 43.8397 110.558 43.7567 110.288 43.5906C110.018 43.4245 109.808 43.1922 109.659 42.8936C109.51 42.595 109.435 42.246 109.435 41.8467C109.435 41.4458 109.51 41.0952 109.659 40.7949C109.808 40.4946 110.018 40.2614 110.288 40.0953C110.558 39.9293 110.874 39.8462 111.237 39.8462C111.599 39.8462 111.915 39.9293 112.185 40.0953C112.455 40.2614 112.665 40.4946 112.814 40.7949C112.964 41.0952 113.038 41.4458 113.038 41.8467C113.038 42.246 112.964 42.595 112.814 42.8936C112.665 43.1922 112.455 43.4245 112.185 43.5906C111.915 43.7567 111.599 43.8397 111.237 43.8397ZM111.239 43.2081C111.474 43.2081 111.669 43.146 111.823 43.0219C111.977 42.8978 112.091 42.7325 112.165 42.5262C112.241 42.3198 112.278 42.0925 112.278 41.8442C112.278 41.5976 112.241 41.3711 112.165 41.1648C112.091 40.9568 111.977 40.7899 111.823 40.664C111.669 40.5382 111.474 40.4753 111.239 40.4753C111.003 40.4753 110.806 40.5382 110.65 40.664C110.496 40.7899 110.381 40.9568 110.306 41.1648C110.232 41.3711 110.195 41.5976 110.195 41.8442C110.195 42.0925 110.232 42.3198 110.306 42.5262C110.381 42.7325 110.496 42.8978 110.65 43.0219C110.806 43.146 111.003 43.2081 111.239 43.2081ZM118.067 41.4668V43.7617H117.315V39.8965H118.037V40.5256H118.085C118.174 40.321 118.313 40.1566 118.503 40.0324C118.694 39.9083 118.935 39.8462 119.225 39.8462C119.488 39.8462 119.719 39.9016 119.917 40.0123C120.115 40.1213 120.268 40.2841 120.377 40.5005C120.487 40.7169 120.541 40.9845 120.541 41.3032V43.7617H119.789V41.3938C119.789 41.1136 119.716 40.8947 119.57 40.737C119.424 40.5776 119.223 40.498 118.968 40.498C118.794 40.498 118.639 40.5357 118.503 40.6112C118.369 40.6867 118.262 40.7974 118.183 40.9434C118.106 41.0876 118.067 41.2621 118.067 41.4668Z" fill="white"/>
<path d="M14.9804 0.00524129C14.6764 0.0132372 14.5071 0.0277063 14.5071 0.0277063C14.3555 0.0400868 14.211 0.0972853 14.092 0.192027C13.9729 0.286769 13.8848 0.414772 13.8387 0.559757C13.7926 0.704742 13.7907 0.860157 13.8332 1.00623C13.8757 1.15231 13.9606 1.28245 14.0773 1.3801C14.0773 1.3801 14.6795 1.89324 15.1197 2.57374C15.3398 2.91399 15.5054 3.28393 15.554 3.60264C15.6026 3.92135 15.568 4.17258 15.3578 4.47278C14.9393 5.07075 14.7416 5.10554 14.3993 5.07484C14.057 5.04415 13.4967 4.77842 12.8372 4.37843C11.5182 3.57846 9.74177 2.28548 7.51902 2.72351C5.9461 3.03363 4.9631 2.84095 4.05491 2.40151C3.14673 1.96207 2.30439 1.21421 1.2393 0.379658C1.12008 0.286423 0.97593 0.230551 0.825015 0.219078C0.674101 0.207606 0.523166 0.241045 0.391218 0.315185C0.259271 0.389325 0.152212 0.500851 0.0835246 0.635717C0.0148368 0.770583 -0.0124083 0.922758 0.00522039 1.07308C0.146673 2.26778 0.365893 4.2676 1.09402 6.16664C1.82216 8.06569 3.12493 9.9408 5.40431 10.6012C7.28705 11.1466 7.89723 11.8873 8.1076 12.5093C8.31797 13.1312 8.11962 13.8203 7.90092 14.2391C7.69322 14.637 6.81309 15.075 5.59901 14.9565C4.38493 14.8379 2.95665 14.2161 1.86083 12.8912C1.75576 12.7638 1.61237 12.6737 1.45199 12.6343C1.29161 12.5949 1.1228 12.6084 0.970684 12.6727C0.818566 12.737 0.691261 12.8486 0.607706 12.9911C0.524151 13.1335 0.488809 13.2991 0.506939 13.4633C0.702402 15.2704 1.043 16.5102 1.53434 17.4516C2.02568 18.3929 2.67363 19.0033 3.32106 19.5004C4.61592 20.4945 5.9109 21.1096 7.4007 23.902C7.40169 23.9045 7.40269 23.907 7.4037 23.9095C7.9865 24.9733 7.8585 26.0492 7.42017 26.6427C6.98185 27.2363 6.3199 27.529 5.0928 26.8869C4.95871 26.8167 4.80686 26.7877 4.65635 26.8036C4.50584 26.8196 4.36341 26.8797 4.24699 26.9764C4.13058 27.0731 4.04539 27.2021 4.00214 27.3471C3.9589 27.4922 3.95955 27.6468 4.00399 27.7915C4.94802 30.865 6.61086 32.7842 8.64227 33.8735C10.6409 34.9452 12.9353 35.2351 15.259 35.3217C16.2419 36.1599 17.3572 36.6561 18.5793 36.6561C18.6853 36.6561 18.7893 36.6484 18.8938 36.6412C18.9456 36.6516 18.9983 36.6566 19.0511 36.6561H28.9611C31.3198 36.6561 33.2945 34.8348 34.6478 32.1961C36.001 29.5574 36.8059 26.0045 36.8059 22.0868C36.8059 18.1692 36.001 14.6148 34.6478 11.9761C33.3577 9.46051 31.5016 7.69233 29.2876 7.53252C26.2509 1.25103 19.4767 0.166192 16.2624 0.020218C15.7231 -0.00427419 15.2844 -0.00275465 14.9804 0.00524129ZM16.2474 1.55832C19.0347 1.69318 24.718 2.60051 27.5428 7.51754H24.8635C24.7552 7.50884 24.647 7.50106 24.537 7.50106C24.4817 7.50059 24.4264 7.50612 24.3723 7.51754H19.0511C18.9978 7.517 18.9446 7.52202 18.8923 7.53252C18.7883 7.52532 18.6848 7.51754 18.5793 7.51754C16.2206 7.51754 14.2459 9.33741 12.8926 11.9761C11.5394 14.6148 10.7345 18.1691 10.7345 22.0868C10.7345 26.0046 11.5394 29.5574 12.8926 32.1961C13.1697 32.7364 13.479 33.2321 13.8062 33.6953C12.1624 33.54 10.6485 33.2082 9.36714 32.5211C8.01715 31.7972 6.96643 30.4962 6.13068 28.6736C7.17063 28.6976 8.10089 28.3041 8.65425 27.5548C9.5078 26.3991 9.58362 24.6968 8.7486 23.1727C7.1204 20.1251 5.39257 19.1569 4.2541 18.2828C3.68432 17.8453 3.26273 17.4492 2.89422 16.7432C2.75024 16.4673 2.6793 15.7949 2.55725 15.3968C3.51018 15.9821 4.49775 16.3897 5.44924 16.4826C7.06123 16.6399 8.60891 16.1981 9.2608 14.949C9.60954 14.2812 9.95843 13.1935 9.56034 12.0165C9.16225 10.8396 8.00635 9.75915 5.83115 9.12903C4.14078 8.63926 3.16047 7.27229 2.52579 5.617C2.14424 4.62186 1.9324 3.59872 1.77696 2.64114C2.29557 3.03732 2.77746 3.48744 3.38695 3.78236C4.55873 4.34935 5.98539 4.588 7.81556 4.22716C9.30491 3.93366 10.6493 4.84575 12.042 5.69039C12.7383 6.1127 13.4306 6.52784 14.263 6.60246C15.0954 6.67709 15.9931 6.24113 16.6144 5.35341C17.0529 4.72693 17.1653 3.99983 17.0696 3.372C16.974 2.74416 16.7042 2.19951 16.4077 1.74104C16.3372 1.63207 16.3209 1.65838 16.2474 1.55832ZM18.5793 9.05115C20.1299 9.05115 21.6944 10.3202 22.9031 12.677C23.1085 13.0776 23.2962 13.5162 23.4752 13.971C23.4918 14.0527 23.5217 14.1311 23.5635 14.2031C24.3848 16.3874 24.892 19.1173 24.892 22.0868C24.892 25.792 24.1117 29.1398 22.9031 31.4967C21.6944 33.8535 20.1299 35.1225 18.5793 35.1225C17.0287 35.1225 15.4657 33.8535 14.257 31.4967C13.0484 29.1398 12.2681 25.792 12.2681 22.0868C12.2681 18.3817 13.0484 15.0338 14.257 12.677C15.4657 10.3202 17.0287 9.05115 18.5793 9.05115ZM22.1153 9.05115H24.6838C26.0135 9.13737 27.496 10.3871 28.6586 12.6725C29.0386 13.4195 29.3724 14.2733 29.6605 15.1961L24.8365 13.2386C24.6581 12.8004 24.4717 12.3744 24.2674 11.9761C23.6675 10.8062 22.9392 9.81189 22.1153 9.05115ZM27.9307 9.05115H28.9611C30.5116 9.05115 32.0747 10.3201 33.2834 12.677C33.3594 12.8252 33.428 12.9884 33.5006 13.1443L31.2271 15.0568C30.8957 13.9356 30.493 12.8971 30.0245 11.9761C29.431 10.8095 28.7235 9.81457 27.9307 9.05115ZM17.772 13.652C17.0963 13.652 16.5056 14.016 16.0617 14.5072C15.6178 14.9983 15.2704 15.6366 14.9819 16.3912C14.4049 17.9004 14.0728 19.8902 14.0728 22.0868C14.0728 24.2835 14.4049 26.2733 14.9819 27.7825C15.2704 28.5371 15.6178 29.1754 16.0617 29.6665C16.5056 30.1577 17.0963 30.5217 17.772 30.5217C18.4478 30.5217 19.037 30.1577 19.4809 29.6665C19.9248 29.1754 20.2722 28.5371 20.5607 27.7825C21.1377 26.2733 21.4698 24.2835 21.4698 22.0868C21.4698 19.8902 21.1377 17.9004 20.5607 16.3912C20.2722 15.6366 19.9248 14.9983 19.4809 14.5072C19.037 14.016 18.4478 13.652 17.772 13.652ZM34.1086 14.6374C34.7029 16.3616 35.1015 18.3976 35.2274 20.5997L32.1901 22.6575C32.194 22.4692 32.2051 22.2844 32.2051 22.0943C32.2051 20.1911 32.0034 18.3765 31.6464 16.7072L34.1086 14.6374ZM25.5015 15.1631L30.1488 17.0487C30.4799 18.6031 30.6715 20.3065 30.6715 22.0943C30.6715 22.3923 30.6578 22.6835 30.6475 22.9765L26.3926 20.7869C26.2992 18.766 25.9895 16.866 25.5015 15.1631ZM17.772 15.1856C17.9058 15.1856 18.0866 15.2496 18.3442 15.5346C18.6017 15.8195 18.8854 16.3048 19.1274 16.9379C19.6115 18.204 19.9362 20.0486 19.9362 22.0868C19.9362 24.1251 19.6115 25.9682 19.1274 27.2343C18.8854 27.8674 18.6017 28.3527 18.3442 28.6376C18.0866 28.9226 17.9058 28.9881 17.772 28.9881C17.6383 28.9881 17.4575 28.9226 17.1999 28.6376C16.9424 28.3527 16.6572 27.8674 16.4152 27.2343C15.9311 25.9682 15.6064 24.1251 15.6064 22.0868C15.6064 20.0486 15.9311 18.204 16.4152 16.9379C16.6572 16.3048 16.9424 15.8195 17.1999 15.5346C17.4575 15.2496 17.6383 15.1856 17.772 15.1856ZM35.2633 22.4283C35.2364 24.4842 34.9717 26.4194 34.5265 28.1299L31.0069 29.8133C31.5354 28.244 31.9071 26.4776 32.0838 24.582L35.2633 22.4283ZM26.4136 22.5227L30.5382 24.6434C30.3238 26.7309 29.8543 28.6294 29.2202 30.2207L25.6887 28.2917C26.1284 26.5298 26.3818 24.5822 26.4136 22.5227ZM25.2544 29.8013L28.5822 31.6195C27.3891 33.8794 25.8794 35.0896 24.537 35.0896C24.4584 35.0886 24.3801 35.0997 24.3049 35.1225H22.1153C22.9392 34.3615 23.6675 33.366 24.2674 32.1961C24.6419 31.4658 24.9693 30.66 25.2544 29.8013ZM33.881 30.1383C33.695 30.6169 33.4985 31.0773 33.2834 31.4967C32.0747 33.8535 30.5116 35.1225 28.9611 35.1225H27.8918C28.7005 34.361 29.4213 33.3593 30.0245 32.1811C30.0661 32.0998 30.1021 32.0096 30.1428 31.9265L33.881 30.1383Z" fill="white"/>
</svg>
