<svg width="69" height="69" viewBox="0 0 69 69" fill="none" xmlns="http://www.w3.org/2000/svg">
<circle cx="34.5" cy="34.5" r="33.5" fill="white" stroke="#008C91" stroke-width="2"/>
<g clip-path="url(#clip0_456_1874)">
<path d="M56.1221 15.416C56.1221 15.416 55.8157 19.8391 52.4761 24.3638C49.2336 28.7556 43.0586 33.1512 31.2577 33.4054V23.0811L29.7336 24.3012L11.5635 38.6927L10.5474 39.5062L11.5635 40.3196L29.7336 54.7111L31.2577 55.9313V45.4505C44.777 45.0985 51.6991 37.762 54.9566 30.4333C58.2514 23.0263 58.0422 15.768 58.0347 15.5724V15.5412V15.4473L56.1221 15.416ZM55.1359 23.7068C54.7063 25.5722 54.1272 27.5237 53.2232 29.5573C50.1077 36.5653 43.8505 43.5108 30.3014 43.5108H29.3451V51.8954L13.7152 39.5062L29.3451 27.117V35.5016H30.3014C43.2603 35.5016 50.3169 30.6014 54.0002 25.6152C54.4784 24.97 54.766 24.3442 55.1359 23.7068Z" fill="#008C91"/>
</g>
<defs>
<clipPath id="clip0_456_1874">
<rect width="47.8161" height="50.0575" fill="white" transform="translate(10.2185 9.47168)"/>
</clipPath>
</defs>
</svg>
