<svg width="69" height="69" viewBox="0 0 69 69" fill="none" xmlns="http://www.w3.org/2000/svg">
<circle r="33.5" transform="matrix(-1 0 0 1 34.5 34.5)" fill="white" stroke="#070645" stroke-width="2"/>
<g clip-path="url(#clip0_456_1870)">
<path d="M12.8781 15.416C12.8781 15.416 13.1844 19.8391 16.524 24.3638C19.7666 28.7556 25.9416 33.1512 37.7424 33.4054V23.0811L39.2666 24.3012L57.4367 38.6927L58.4528 39.5062L57.4367 40.3196L39.2666 54.7111L37.7424 55.9313V45.4505C24.2232 45.0985 17.301 37.762 14.0436 30.4333C10.7487 23.0263 10.9579 15.768 10.9654 15.5724V15.5412V15.4473L12.8781 15.416ZM13.8643 23.7068C14.2939 25.5722 14.8729 27.5237 15.7769 29.5573C18.8924 36.5653 25.1496 43.5108 38.6987 43.5108H39.6551V51.8954L55.2849 39.5062L39.6551 27.117V35.5016H38.6987C25.7398 35.5016 18.6832 30.6014 14.9999 25.6152C14.5217 24.97 14.2341 24.3442 13.8643 23.7068Z" fill="#070645"/>
</g>
<defs>
<clipPath id="clip0_456_1870">
<rect width="47.8161" height="50.0575" fill="white" transform="matrix(-1 0 0 1 58.7815 9.47168)"/>
</clipPath>
</defs>
</svg>
